<svg width="100" height="100" viewBox="0 0 100 100" fill="none" xmlns="http://www.w3.org/2000/svg">
<path d="M-1.33563e-05 76.3889L0 0L100 1.74846e-05L100 76.3889L50 99.9999L-1.33563e-05 76.3889Z" fill="#D770FF"/>
<path d="M100 0V76.3887L88.8887 70.833V11.1113H11.1113L0 0H100Z" fill="#B804FF"/>
<path d="M50 88.8884L100 65.2773V76.3884L50 99.9995V88.8884Z" fill="#8E00C6"/>
<circle cx="31.9444" cy="50.0001" r="6.94444" fill="#333333"/>
<path d="M52.7779 50.0001C52.7779 48.466 51.5342 47.2223 50.0001 47.2223C48.466 47.2223 47.2223 48.466 47.2223 50.0001C47.2223 51.5342 48.466 52.7779 50.0001 52.7779V56.9445C46.1648 56.9445 43.0557 53.8354 43.0557 50.0001C43.0557 46.1648 46.1648 43.0557 50.0001 43.0557C53.8354 43.0557 56.9445 46.1648 56.9445 50.0001C56.9445 53.8354 53.8354 56.9445 50.0001 56.9445V52.7779C51.5342 52.7779 52.7779 51.5342 52.7779 50.0001Z" fill="#333333"/>
<path d="M70.8335 50.0001C70.8335 48.466 69.5899 47.2223 68.0558 47.2223C66.5216 47.2223 65.278 48.466 65.278 50.0001C65.278 51.5342 66.5216 52.7779 68.0558 52.7779V56.9445C64.2205 56.9445 61.1113 53.8354 61.1113 50.0001C61.1113 46.1648 64.2205 43.0557 68.0558 43.0557C71.8911 43.0557 75.0002 46.1648 75.0002 50.0001C75.0002 53.8354 71.8911 56.9445 68.0558 56.9445V52.7779C69.5899 52.7779 70.8335 51.5342 70.8335 50.0001Z" fill="#333333"/>
<rect x="37.5" y="47.2227" width="6.94444" height="5.55555" fill="#333333"/>
<rect x="55.5557" y="47.2227" width="6.94444" height="5.55555" fill="#333333"/>
</svg>
