<svg width="229" height="100" viewBox="0 0 229 100" fill="none" xmlns="http://www.w3.org/2000/svg">
<path d="M208.825 82.5393L208.956 75.6408L221.216 64.3044H227.806L217.393 74.762L214.493 77.1787L208.825 82.5393ZM204.343 87.7681V55.165H209.835V87.7681H204.343ZM222.05 87.7681L213.482 77.1787L216.953 72.7847L228.729 87.7681H222.05Z" fill="#8E00C6"/>
<path d="M192.11 87.7673V83.0219L191.803 82.0113V73.7067C191.803 72.0956 191.319 70.8506 190.353 69.9719C189.386 69.0638 187.921 68.6097 185.959 68.6097C184.64 68.6097 183.337 68.8148 182.048 69.2249C180.788 69.635 179.719 70.2062 178.84 70.9385L176.687 66.94C177.947 65.9734 179.441 65.2557 181.169 64.787C182.927 64.289 184.743 64.04 186.618 64.04C190.016 64.04 192.637 64.8602 194.483 66.5006C196.358 68.1118 197.295 70.6163 197.295 74.0143V87.7673H192.11ZM184.728 88.0749C182.971 88.0749 181.433 87.782 180.115 87.1961C178.796 86.5809 177.771 85.7461 177.039 84.6916C176.336 83.6077 175.984 82.3921 175.984 81.0446C175.984 79.7264 176.292 78.54 176.907 77.4855C177.552 76.4309 178.591 75.5961 180.027 74.9809C181.462 74.3658 183.366 74.0582 185.739 74.0582H192.55V77.7052H186.134C184.26 77.7052 183 78.0128 182.356 78.6279C181.711 79.2138 181.389 79.9461 181.389 80.8249C181.389 81.8208 181.784 82.6118 182.575 83.1976C183.366 83.7835 184.465 84.0764 185.871 84.0764C187.218 84.0764 188.419 83.7688 189.474 83.1537C190.558 82.5385 191.334 81.6304 191.803 80.4294L192.725 83.7249C192.198 85.1017 191.246 86.1708 189.869 86.9325C188.522 87.6941 186.808 88.0749 184.728 88.0749Z" fill="#8E00C6"/>
<path d="M165.42 87.7673V83.0219L165.112 82.0113V73.7067C165.112 72.0956 164.629 70.8506 163.662 69.9719C162.695 69.0638 161.231 68.6097 159.268 68.6097C157.95 68.6097 156.646 68.8148 155.358 69.2249C154.098 69.635 153.029 70.2062 152.15 70.9385L149.997 66.94C151.257 65.9734 152.751 65.2557 154.479 64.787C156.236 64.289 158.053 64.04 159.927 64.04C163.325 64.04 165.947 64.8602 167.792 66.5006C169.667 68.1118 170.605 70.6163 170.605 74.0143V87.7673H165.42ZM158.038 88.0749C156.28 88.0749 154.742 87.782 153.424 87.1961C152.106 86.5809 151.081 85.7461 150.348 84.6916C149.645 83.6077 149.294 82.3921 149.294 81.0446C149.294 79.7264 149.602 78.54 150.217 77.4855C150.861 76.4309 151.901 75.5961 153.336 74.9809C154.772 74.3658 156.676 74.0582 159.048 74.0582H165.859V77.7052H159.444C157.569 77.7052 156.31 78.0128 155.665 78.6279C155.021 79.2138 154.698 79.9461 154.698 80.8249C154.698 81.8208 155.094 82.6118 155.885 83.1976C156.676 83.7835 157.774 84.0764 159.18 84.0764C160.528 84.0764 161.729 83.7688 162.783 83.1537C163.867 82.5385 164.643 81.6304 165.112 80.4294L166.035 83.7249C165.508 85.1017 164.556 86.1708 163.179 86.9325C161.831 87.6941 160.118 88.0749 158.038 88.0749Z" fill="#8E00C6"/>
<path d="M119.984 87.7683V83.9456L139.845 59.691L140.504 61.8441H120.292V57.0107H145.645V60.8335L125.784 85.088L125.081 82.935H146.216V87.7683H119.984Z" fill="#8E00C6"/>
<path d="M192.342 39.2835V21.6169H195.408V26.3835L194.908 25.1169C195.486 23.9613 196.375 23.0613 197.575 22.4169C198.775 21.7724 200.175 21.4502 201.775 21.4502C203.22 21.4502 204.486 21.728 205.575 22.2835C206.686 22.8391 207.553 23.6835 208.175 24.8169C208.797 25.9502 209.108 27.3835 209.108 29.1169V39.2835H205.908V29.4835C205.908 27.7724 205.486 26.4835 204.642 25.6169C203.82 24.7502 202.653 24.3169 201.142 24.3169C200.008 24.3169 199.02 24.5391 198.175 24.9835C197.331 25.428 196.675 26.0835 196.208 26.9502C195.764 27.8169 195.542 28.8946 195.542 30.1835V39.2835H192.342Z" fill="#333333"/>
<path d="M179.798 39.4835C177.909 39.4835 176.242 39.0946 174.798 38.3169C173.376 37.5391 172.265 36.4724 171.465 35.1169C170.687 33.7613 170.298 32.2058 170.298 30.4502C170.298 28.6946 170.676 27.1391 171.431 25.7835C172.209 24.428 173.265 23.3724 174.598 22.6169C175.953 21.8391 177.476 21.4502 179.165 21.4502C180.876 21.4502 182.387 21.828 183.698 22.5835C185.009 23.3391 186.031 24.4058 186.765 25.7835C187.52 27.1391 187.898 28.728 187.898 30.5502C187.898 30.6835 187.887 30.8391 187.865 31.0169C187.865 31.1946 187.853 31.3613 187.831 31.5169H172.798V29.2169H186.165L184.865 30.0169C184.887 28.8835 184.653 27.8724 184.165 26.9835C183.676 26.0946 182.998 25.4058 182.131 24.9169C181.287 24.4058 180.298 24.1502 179.165 24.1502C178.053 24.1502 177.065 24.4058 176.198 24.9169C175.331 25.4058 174.653 26.1058 174.165 27.0169C173.676 27.9058 173.431 28.928 173.431 30.0835V30.6169C173.431 31.7946 173.698 32.8502 174.231 33.7835C174.787 34.6946 175.553 35.4058 176.531 35.9169C177.509 36.428 178.631 36.6835 179.898 36.6835C180.942 36.6835 181.887 36.5058 182.731 36.1502C183.598 35.7946 184.353 35.2613 184.998 34.5502L186.765 36.6169C185.965 37.5502 184.965 38.2613 183.765 38.7502C182.587 39.2391 181.265 39.4835 179.798 39.4835Z" fill="#333333"/>
<path d="M158.577 39.4835C157.11 39.4835 155.766 39.1502 154.543 38.4835C153.343 37.7946 152.377 36.7835 151.643 35.4502C150.932 34.1169 150.577 32.4502 150.577 30.4502C150.577 28.4502 150.921 26.7835 151.61 25.4502C152.321 24.1169 153.277 23.1169 154.477 22.4502C155.699 21.7835 157.066 21.4502 158.577 21.4502C160.31 21.4502 161.843 21.828 163.177 22.5835C164.51 23.3391 165.566 24.3946 166.343 25.7502C167.121 27.0835 167.51 28.6502 167.51 30.4502C167.51 32.2502 167.121 33.828 166.343 35.1835C165.566 36.5391 164.51 37.5946 163.177 38.3502C161.843 39.1058 160.31 39.4835 158.577 39.4835ZM149.21 45.7502V21.6169H152.277V26.3835L152.077 30.4835L152.41 34.5835V45.7502H149.21ZM158.31 36.6835C159.443 36.6835 160.454 36.428 161.343 35.9169C162.254 35.4058 162.966 34.6835 163.477 33.7502C164.01 32.7946 164.277 31.6946 164.277 30.4502C164.277 29.1835 164.01 28.0946 163.477 27.1835C162.966 26.2502 162.254 25.528 161.343 25.0169C160.454 24.5058 159.443 24.2502 158.31 24.2502C157.199 24.2502 156.188 24.5058 155.277 25.0169C154.388 25.528 153.677 26.2502 153.143 27.1835C152.632 28.0946 152.377 29.1835 152.377 30.4502C152.377 31.6946 152.632 32.7946 153.143 33.7502C153.677 34.6835 154.388 35.4058 155.277 35.9169C156.188 36.428 157.199 36.6835 158.31 36.6835Z" fill="#333333"/>
<path d="M132.215 39.5493C130.437 39.5493 128.781 39.2493 127.248 38.6493C125.737 38.0493 124.426 37.216 123.315 36.1493C122.203 35.0604 121.337 33.7937 120.715 32.3493C120.092 30.9048 119.781 29.3271 119.781 27.616C119.781 25.9048 120.092 24.3271 120.715 22.8826C121.337 21.4382 122.203 20.1826 123.315 19.116C124.426 18.0271 125.737 17.1826 127.248 16.5826C128.759 15.9826 130.415 15.6826 132.215 15.6826C133.992 15.6826 135.626 15.9826 137.115 16.5826C138.626 17.1604 139.937 17.9937 141.048 19.0826C142.181 20.1493 143.048 21.4048 143.648 22.8493C144.27 24.2937 144.581 25.8826 144.581 27.616C144.581 29.3493 144.27 30.9382 143.648 32.3826C143.048 33.8271 142.181 35.0937 141.048 36.1826C139.937 37.2493 138.626 38.0826 137.115 38.6826C135.626 39.2604 133.992 39.5493 132.215 39.5493ZM132.215 36.5826C133.503 36.5826 134.692 36.3604 135.781 35.916C136.892 35.4715 137.848 34.8493 138.648 34.0493C139.47 33.2271 140.103 32.2715 140.548 31.1826C141.015 30.0937 141.248 28.9048 141.248 27.616C141.248 26.3271 141.015 25.1382 140.548 24.0493C140.103 22.9604 139.47 22.0159 138.648 21.2159C137.848 20.3937 136.892 19.7604 135.781 19.316C134.692 18.8715 133.503 18.6493 132.215 18.6493C130.903 18.6493 129.692 18.8715 128.581 19.316C127.492 19.7604 126.537 20.3937 125.715 21.2159C124.892 22.0159 124.248 22.9604 123.781 24.0493C123.337 25.1382 123.115 26.3271 123.115 27.616C123.115 28.9048 123.337 30.0937 123.781 31.1826C124.248 32.2715 124.892 33.2271 125.715 34.0493C126.537 34.8493 127.492 35.4715 128.581 35.916C129.692 36.3604 130.903 36.5826 132.215 36.5826Z" fill="#333333"/>
<path d="M-1.33563e-05 76.3889L0 0L100 1.74846e-05L100 76.3889L50 99.9999L-1.33563e-05 76.3889Z" fill="#D770FF"/>
<path d="M100 0V76.3887L88.8896 70.833V11.1113H11.1113L0 0H100Z" fill="#B804FF"/>
<path d="M50 88.8884L100 65.2773V76.3884L50 99.9995V88.8884Z" fill="#8E00C6"/>
<circle cx="31.9444" cy="50.0001" r="6.94444" fill="#333333"/>
<path d="M52.7779 50.0001C52.7779 48.466 51.5342 47.2223 50.0001 47.2223C48.466 47.2223 47.2223 48.466 47.2223 50.0001C47.2223 51.5342 48.466 52.7779 50.0001 52.7779V56.9445C46.1648 56.9445 43.0557 53.8354 43.0557 50.0001C43.0557 46.1648 46.1648 43.0557 50.0001 43.0557C53.8354 43.0557 56.9445 46.1648 56.9445 50.0001C56.9445 53.8354 53.8354 56.9445 50.0001 56.9445V52.7779C51.5342 52.7779 52.7779 51.5342 52.7779 50.0001Z" fill="#333333"/>
<path d="M70.8326 50.0001C70.8326 48.466 69.5889 47.2223 68.0548 47.2223C66.5207 47.2223 65.277 48.466 65.277 50.0001C65.277 51.5342 66.5207 52.7779 68.0548 52.7779V56.9445C64.2195 56.9445 61.1104 53.8354 61.1104 50.0001C61.1104 46.1648 64.2195 43.0557 68.0548 43.0557C71.8901 43.0557 74.9992 46.1648 74.9992 50.0001C74.9992 53.8354 71.8901 56.9445 68.0548 56.9445V52.7779C69.5889 52.7779 70.8326 51.5342 70.8326 50.0001Z" fill="#333333"/>
<rect x="37.5" y="47.2227" width="6.94444" height="5.55555" fill="#333333"/>
<rect x="55.5557" y="47.2227" width="6.94444" height="5.55555" fill="#333333"/>
</svg>
