<?xml version="1.0" standalone="no"?>
<!DOCTYPE svg PUBLIC "-//W3C//DTD SVG 1.1//EN" "http://www.w3.org/Graphics/SVG/1.1/DTD/svg11.dtd">
<!--Generator: Xara Designer (www.xara.com), SVG filter version: 6.1.0.6-->
<svg stroke-width="0.501" stroke-linejoin="bevel" fill-rule="evenodd" xmlns:xlink="http://www.w3.org/1999/xlink" xmlns="http://www.w3.org/2000/svg" version="1.1" overflow="visible" width="36pt" height="36pt" viewBox="0 0 36 36">
 <defs>
	</defs>
 <g id="Document" fill="none" stroke="black" font-family="Times New Roman" font-size="16" transform="scale(1 -1)">
  <g id="Spread" transform="translate(0 -36)">
   <g id="Layer 1">
    <g id="Group" fill-rule="nonzero" stroke-linejoin="round" stroke-linecap="round" stroke="none">
     <g id="Group_1" stroke-width="0.939" fill="#00bfcb" stroke-miterlimit="79.8403193612775">
      <g id="Group_2">
       <path d="M 5.261,26.418 L 5.261,19.97 C 5.261,19.364 5.155,18.9 4.943,18.577 C 4.731,18.254 4.383,18.012 3.899,17.85 C 4.807,17.548 5.261,16.841 5.261,15.731 L 5.261,9.283 C 5.261,8.234 5.448,7.538 5.821,7.194 C 6.194,6.851 6.855,6.68 7.804,6.68 L 8.5,6.68 L 8.5,4.5 L 7.804,4.5 C 6.129,4.5 4.877,4.823 4.05,5.469 C 3.243,6.095 2.839,7.336 2.839,9.192 L 2.839,15.186 C 2.839,15.752 2.723,16.155 2.491,16.397 C 2.259,16.64 1.87,16.761 1.325,16.761 L 0.75,16.761 L 0.75,18.94 L 1.325,18.94 C 1.87,18.94 2.259,19.061 2.491,19.304 C 2.723,19.546 2.839,19.949 2.839,20.514 L 2.839,26.509 C 2.839,28.365 3.243,29.606 4.05,30.232 C 4.877,30.878 6.129,31.201 7.804,31.201 L 8.5,31.201 L 8.5,29.021 L 7.804,29.021 C 6.855,29.021 6.194,28.85 5.821,28.507 C 5.448,28.163 5.261,27.467 5.261,26.418 Z" marker-start="none" marker-end="none"/>
      </g>
     </g>
     <g id="Group_3" stroke-width="0.628" fill="#351a90" stroke-miterlimit="79.8403193612775">
      <g id="Group_4">
       <path d="M 9.784,26.574 L 13.096,26.574 L 18.002,17.067 L 22.856,26.574 L 26.219,26.574 L 26.219,9.127 L 22.831,9.127 L 22.831,19.949 L 19.038,12.263 L 16.889,12.263 L 13.147,19.874 L 13.147,9.127 L 9.784,9.127 L 9.784,26.574 Z" marker-start="none" marker-end="none"/>
      </g>
     </g>
     <g id="Group_5" stroke-width="0.939" fill="#00bfcb" stroke-miterlimit="79.8403193612775">
      <g id="Group_6">
       <path d="M 30.738,26.418 L 30.738,19.97 C 30.738,19.364 30.844,18.9 31.056,18.577 C 31.268,18.254 31.616,18.012 32.1,17.85 C 31.192,17.548 30.738,16.841 30.738,15.731 L 30.738,9.283 C 30.738,8.234 30.551,7.538 30.178,7.194 C 29.805,6.851 29.144,6.68 28.195,6.68 L 27.499,6.68 L 27.499,4.5 L 28.195,4.5 C 29.87,4.5 31.121,4.823 31.949,5.469 C 32.756,6.095 33.16,7.336 33.16,9.192 L 33.16,15.186 C 33.16,15.752 33.276,16.155 33.508,16.397 C 33.74,16.64 34.129,16.761 34.673,16.761 L 35.249,16.761 L 35.249,18.94 L 34.673,18.94 C 34.129,18.94 33.74,19.061 33.508,19.304 C 33.276,19.546 33.16,19.949 33.16,20.514 L 33.16,26.509 C 33.16,28.365 32.756,29.606 31.949,30.232 C 31.121,30.878 29.87,31.201 28.195,31.201 L 27.499,31.201 L 27.499,29.021 L 28.195,29.021 C 29.144,29.021 29.805,28.85 30.178,28.507 C 30.551,28.163 30.738,27.467 30.738,26.418 Z" marker-start="none" marker-end="none"/>
      </g>
     </g>
    </g>
   </g>
  </g>
 </g>
</svg>
